<svg width="117" height="105" viewBox="0 0 117 105" fill="none" xmlns="http://www.w3.org/2000/svg">
<path fill-rule="evenodd" clip-rule="evenodd" d="M84.1171 2L115.064 69.1869L79.5002 75.9971L78.2097 24.5975L51.7115 56.1767L85.0103 96.248L77.3192 102.639L45.1789 63.962L13.1809 102.096L5.52042 95.6679L38.6836 56.1456L25.5019 40.2829L21.1066 37.3387L9.05812 32.9574L2 21.6644L5.8296 7.11185L22.9905 3.38131L30.0665 10.4573L33.6144 12.8109L28.0865 21.1441L23.7038 18.2368L19.7799 14.3128L13.9411 15.5821L12.7707 20.0295L15.7126 24.7366L25.6641 28.3553L32.2688 32.7795L45.2162 48.3603L84.1171 2ZM88.4836 35.3824L89.2011 63.9577L100.637 61.7679L88.4836 35.3824Z" fill="#D6D65C" stroke="#424224" stroke-width="2"/>
</svg>
