<svg width="112" height="111" viewBox="0 0 112 111" fill="none" xmlns="http://www.w3.org/2000/svg">
<path d="M27.021 3.41715L26.6701 2.99892L26.1285 3.06796L8.13325 5.36208L7.52547 5.43956L7.31849 6.01625L2.05878 20.6716L1.91278 21.0784L2.10904 21.4635L8.33239 33.6744L8.48878 33.9813L8.80099 34.1268L20.4366 39.5485L24.066 42.4212L34.3266 57.2927L4.94387 99.5661L4.765 99.8235V100.137V108.396V109.396H5.765H13.4203H13.9431L14.2414 108.967L42.2132 68.7235L68.9144 107.424L69.2126 107.856H69.7375H77.388H78.388V106.856V98.5748V98.2633L78.2111 98.0069L50.1394 57.3201L66.3321 34.0232L68.9184 77.4282L68.9843 78.5342L70.0778 78.3557L108.183 72.1344L109.563 71.909L108.904 70.6758L73.1985 3.91615L72.428 2.47552L71.4956 3.81703L42.2527 45.8892L33.7458 33.5593L33.6607 33.4361L33.5433 33.3431L27.4012 28.4816L27.3092 28.4088L27.2029 28.3593L18.0381 24.0889L16.0466 20.1814L17.0707 17.3279L21.2736 16.7921L24.5661 20.7159L24.6704 20.8402L24.8087 20.9252L29.3803 23.7335L30.2323 24.2569L30.7558 23.4048L36.5134 14.032L37.0369 13.18L36.1848 12.6565L33.2728 10.8677L27.021 3.41715ZM89.5256 62.0084L81.1046 63.3832L79.9566 44.1168L89.5256 62.0084Z" fill="#D6D65C" stroke="#424224" stroke-width="2"/>
</svg>
